<mxfile host="app.diagrams.net" modified="2023-10-15T05:36:51.078Z" agent="Mozilla/5.0 (Windows NT 10.0; Win64; x64; rv:109.0) Gecko/20100101 Firefox/118.0" etag="FPIiAl7YoZvtwF6sS9cS" version="21.8.2" type="device">
  <diagram id="xCsVWlV-KQrjOmjG070d" name="PÃ¡gina-2">
    <mxGraphModel dx="1257" dy="596" grid="1" gridSize="10" guides="1" tooltips="1" connect="1" arrows="1" fold="1" page="1" pageScale="1" pageWidth="1169" pageHeight="827" background="none" math="0" shadow="0">
      <root>
        <mxCell id="0" />
        <mxCell id="1" parent="0" />
        <mxCell id="0TjI_xLk8EIAhLMLX3-r-5" value="" style="edgeStyle=orthogonalEdgeStyle;rounded=0;orthogonalLoop=1;jettySize=auto;html=1;entryX=0;entryY=0.5;entryDx=0;entryDy=0;entryPerimeter=0;" parent="1" source="0TjI_xLk8EIAhLMLX3-r-1" target="0TjI_xLk8EIAhLMLX3-r-2" edge="1">
          <mxGeometry relative="1" as="geometry">
            <mxPoint x="290" y="130" as="targetPoint" />
          </mxGeometry>
        </mxCell>
        <mxCell id="0TjI_xLk8EIAhLMLX3-r-15" style="edgeStyle=orthogonalEdgeStyle;rounded=0;orthogonalLoop=1;jettySize=auto;html=1;exitX=0.5;exitY=1;exitDx=0;exitDy=0;exitPerimeter=0;entryX=0.5;entryY=0;entryDx=0;entryDy=0;" parent="1" source="0TjI_xLk8EIAhLMLX3-r-1" target="0TjI_xLk8EIAhLMLX3-r-19" edge="1">
          <mxGeometry relative="1" as="geometry">
            <mxPoint x="120" y="200" as="targetPoint" />
          </mxGeometry>
        </mxCell>
        <mxCell id="0TjI_xLk8EIAhLMLX3-r-1" value="&lt;div&gt;Document&lt;/div&gt;&lt;div&gt;Store&lt;/div&gt;" style="shape=cylinder3;whiteSpace=wrap;html=1;boundedLbl=1;backgroundOutline=1;size=15;" parent="1" vertex="1">
          <mxGeometry x="70" y="70" width="100" height="90" as="geometry" />
        </mxCell>
        <mxCell id="0TjI_xLk8EIAhLMLX3-r-28" style="edgeStyle=orthogonalEdgeStyle;rounded=0;orthogonalLoop=1;jettySize=auto;html=1;exitX=0.5;exitY=1;exitDx=0;exitDy=0;exitPerimeter=0;" parent="1" source="0TjI_xLk8EIAhLMLX3-r-2" edge="1">
          <mxGeometry relative="1" as="geometry">
            <mxPoint x="660" y="340" as="targetPoint" />
          </mxGeometry>
        </mxCell>
        <mxCell id="Eb22gf43CuBH56pUGFWh-15" value="" style="edgeStyle=orthogonalEdgeStyle;rounded=0;orthogonalLoop=1;jettySize=auto;html=1;" edge="1" parent="1">
          <mxGeometry relative="1" as="geometry">
            <mxPoint x="543" y="115" as="sourcePoint" />
            <mxPoint x="733" y="115" as="targetPoint" />
          </mxGeometry>
        </mxCell>
        <mxCell id="0TjI_xLk8EIAhLMLX3-r-2" value="&lt;div&gt;QA pairs as evaluation set&lt;/div&gt;" style="shape=cylinder3;whiteSpace=wrap;html=1;boundedLbl=1;backgroundOutline=1;size=15;" parent="1" vertex="1">
          <mxGeometry x="436" y="70" width="104" height="90" as="geometry" />
        </mxCell>
        <mxCell id="0TjI_xLk8EIAhLMLX3-r-6" value="&lt;div&gt;generate evaluation set&lt;/div&gt;&lt;div&gt;with e.g. gpt-3.5-turbo or gpt-4&lt;br&gt;&lt;/div&gt;" style="text;html=1;align=center;verticalAlign=middle;resizable=0;points=[];autosize=1;strokeColor=none;fillColor=none;" parent="1" vertex="1">
          <mxGeometry x="193" y="95" width="180" height="40" as="geometry" />
        </mxCell>
        <mxCell id="Eb22gf43CuBH56pUGFWh-6" value="" style="edgeStyle=orthogonalEdgeStyle;rounded=0;orthogonalLoop=1;jettySize=auto;html=1;entryX=0;entryY=0.5;entryDx=0;entryDy=0;" edge="1" parent="1" source="0TjI_xLk8EIAhLMLX3-r-8" target="0TjI_xLk8EIAhLMLX3-r-24">
          <mxGeometry relative="1" as="geometry">
            <mxPoint x="240" y="365" as="targetPoint" />
          </mxGeometry>
        </mxCell>
        <mxCell id="0TjI_xLk8EIAhLMLX3-r-8" value="&lt;div&gt;Vectorstore&lt;/div&gt;&lt;div&gt;ChromaDB, etc.&lt;/div&gt;" style="shape=cylinder3;whiteSpace=wrap;html=1;boundedLbl=1;backgroundOutline=1;size=15;" parent="1" vertex="1">
          <mxGeometry x="70" y="320" width="100" height="90" as="geometry" />
        </mxCell>
        <mxCell id="0TjI_xLk8EIAhLMLX3-r-18" style="edgeStyle=orthogonalEdgeStyle;rounded=0;orthogonalLoop=1;jettySize=auto;html=1;" parent="1" edge="1">
          <mxGeometry relative="1" as="geometry">
            <mxPoint x="120" y="317" as="targetPoint" />
            <mxPoint x="120" y="267" as="sourcePoint" />
          </mxGeometry>
        </mxCell>
        <mxCell id="0TjI_xLk8EIAhLMLX3-r-19" value="&lt;div&gt;Text splitting strategies&lt;/div&gt;&lt;div&gt;Chunk size, chunk overlap, length function, text splitter, embedding model&lt;br&gt;&lt;/div&gt;" style="rounded=0;whiteSpace=wrap;html=1;" parent="1" vertex="1">
          <mxGeometry x="20" y="200" width="200" height="70" as="geometry" />
        </mxCell>
        <mxCell id="Eb22gf43CuBH56pUGFWh-18" value="" style="edgeStyle=orthogonalEdgeStyle;rounded=0;orthogonalLoop=1;jettySize=auto;html=1;entryX=0;entryY=0;entryDx=126.5;entryDy=106;entryPerimeter=0;" edge="1" parent="1" source="0TjI_xLk8EIAhLMLX3-r-23" target="0TjI_xLk8EIAhLMLX3-r-52">
          <mxGeometry relative="1" as="geometry">
            <mxPoint x="814" y="225" as="targetPoint" />
          </mxGeometry>
        </mxCell>
        <mxCell id="0TjI_xLk8EIAhLMLX3-r-23" value="&lt;div&gt;LLM(query, vectorstore)&lt;/div&gt;&lt;div&gt;Gen. answers&lt;br&gt;&lt;/div&gt;" style="shape=cylinder3;whiteSpace=wrap;html=1;boundedLbl=1;backgroundOutline=1;size=15;" parent="1" vertex="1">
          <mxGeometry x="758" y="320" width="112" height="90" as="geometry" />
        </mxCell>
        <mxCell id="Eb22gf43CuBH56pUGFWh-11" value="" style="edgeStyle=orthogonalEdgeStyle;rounded=0;orthogonalLoop=1;jettySize=auto;html=1;entryX=0;entryY=0.5;entryDx=0;entryDy=0;entryPerimeter=0;" edge="1" parent="1" source="0TjI_xLk8EIAhLMLX3-r-24" target="0TjI_xLk8EIAhLMLX3-r-23">
          <mxGeometry relative="1" as="geometry">
            <mxPoint x="700" y="365" as="targetPoint" />
          </mxGeometry>
        </mxCell>
        <mxCell id="0TjI_xLk8EIAhLMLX3-r-24" value="&lt;div&gt;QA LLM chat model like gpt-* or Llama 2 on top of retriever&lt;br&gt;&lt;/div&gt;" style="rounded=0;whiteSpace=wrap;html=1;" parent="1" vertex="1">
          <mxGeometry x="390" y="337.5" width="180" height="55" as="geometry" />
        </mxCell>
        <mxCell id="0TjI_xLk8EIAhLMLX3-r-57" style="edgeStyle=orthogonalEdgeStyle;rounded=0;orthogonalLoop=1;jettySize=auto;html=1;exitX=0.817;exitY=0.998;exitDx=0;exitDy=0;exitPerimeter=0;entryX=0.5;entryY=0;entryDx=0;entryDy=0;" parent="1" source="0TjI_xLk8EIAhLMLX3-r-52" target="0TjI_xLk8EIAhLMLX3-r-59" edge="1">
          <mxGeometry relative="1" as="geometry">
            <mxPoint x="924" y="220" as="targetPoint" />
          </mxGeometry>
        </mxCell>
        <mxCell id="0TjI_xLk8EIAhLMLX3-r-52" value="Calculate metrics based on generated answers and reference QA pairs like embedding similarities, grade generated answers using LLM like gpt-4 or ROUGE score" style="shape=cube;whiteSpace=wrap;html=1;boundedLbl=1;backgroundOutline=1;darkOpacity=0.05;darkOpacity2=0.1;" parent="1" vertex="1">
          <mxGeometry x="687" y="64" width="233" height="106" as="geometry" />
        </mxCell>
        <mxCell id="0TjI_xLk8EIAhLMLX3-r-59" value="Choose best configuration of text splitting strategy, retriever and QA LLM and finetune the embedding model or LLM" style="rounded=0;whiteSpace=wrap;html=1;" parent="1" vertex="1">
          <mxGeometry x="920" y="235" width="170" height="80" as="geometry" />
        </mxCell>
        <mxCell id="0TjI_xLk8EIAhLMLX3-r-60" style="edgeStyle=orthogonalEdgeStyle;rounded=0;orthogonalLoop=1;jettySize=auto;html=1;exitX=0.5;exitY=1;exitDx=0;exitDy=0;" parent="1" source="0TjI_xLk8EIAhLMLX3-r-59" target="0TjI_xLk8EIAhLMLX3-r-59" edge="1">
          <mxGeometry relative="1" as="geometry" />
        </mxCell>
        <mxCell id="Eb22gf43CuBH56pUGFWh-7" value="&lt;div&gt;&lt;br&gt;&lt;/div&gt;&lt;div&gt;Retriever parameters&lt;br&gt;&lt;/div&gt;&lt;div&gt;Search type,&lt;/div&gt;&lt;div&gt;SelfQueryRetriever,&lt;/div&gt;&lt;div&gt;ContextualCompressionRetriever,&lt;/div&gt;&lt;div&gt;Reordering (Cohere Rerank, etc.)&lt;br&gt;&lt;/div&gt;" style="text;html=1;align=center;verticalAlign=middle;resizable=0;points=[];autosize=1;strokeColor=none;fillColor=none;" vertex="1" parent="1">
          <mxGeometry x="173" y="315" width="200" height="100" as="geometry" />
        </mxCell>
        <mxCell id="0TjI_xLk8EIAhLMLX3-r-29" value="&lt;div&gt;Use every generated question as query on QA LLM&lt;br&gt;&lt;/div&gt;" style="text;html=1;strokeColor=none;fillColor=none;align=center;verticalAlign=middle;whiteSpace=wrap;rounded=0;" parent="1" vertex="1">
          <mxGeometry x="584" y="360" width="150" height="20" as="geometry" />
        </mxCell>
      </root>
    </mxGraphModel>
  </diagram>
</mxfile>
